# xmcd
#
# Track frame offsets:
#	150
#	19617
#	38246
#	55705
#	71867
#	88064
#	104686
#	122451
#	136256
#	151701
#	169174
#	185859
#
# Disc length: 2752 seconds
#
# Revision: 1
# Processed by: cddbd v1.5.2PL0 Copyright (c) Steve Scherf et al.
# Submitted via: audiograbber 1.83.01
#
DISCID=a00abe0c
DTITLE=Justine Blazer - Pioneer Soul Shaker
DYEAR=2019
DGENRE=Country
TTITLE0=No Tomorrow
TTITLE1=Pioneer Soul Shaker
TTITLE2=Cigarettes and Secrets
TTITLE3=Can't Buy Free
TTITLE4=Girl In The Lights
TTITLE5=Good Luck with That
TTITLE6=Broken Girls Don't Cry
TTITLE7=Replay
TTITLE8=Get Dirty
TTITLE9=Heartbreak Prison
TTITLE10=Been Around
TTITLE11=Sweet Child of Mine
EXTD=
EXTT0=
EXTT1=
EXTT2=
EXTT3=
EXTT4=
EXTT5=
EXTT6=
EXTT7=
EXTT8=
EXTT9=
EXTT10=
EXTT11=
PLAYORDER=
